<svg id="visual" viewBox="0 0 900 50" width="900" height="50" xmlns="http://www.w3.org/2000/svg" xmlns:xlink="http://www.w3.org/1999/xlink" version="1.1"><path d="M0 13L21.5 15.2C43 17.3 86 21.7 128.8 22.3C171.7 23 214.3 20 257.2 18.2C300 16.3 343 15.7 385.8 16C428.7 16.3 471.3 17.7 514.2 17.7C557 17.7 600 16.3 642.8 17.3C685.7 18.3 728.3 21.7 771.2 21.8C814 22 857 19 878.5 17.5L900 16L900 51L878.5 51C857 51 814 51 771.2 51C728.3 51 685.7 51 642.8 51C600 51 557 51 514.2 51C471.3 51 428.7 51 385.8 51C343 51 300 51 257.2 51C214.3 51 171.7 51 128.8 51C86 51 43 51 21.5 51L0 51Z" fill="#5c5c5c"></path><path d="M0 24L21.5 24.8C43 25.7 86 27.3 128.8 28C171.7 28.7 214.3 28.3 257.2 27.3C300 26.3 343 24.7 385.8 24.2C428.7 23.7 471.3 24.3 514.2 26.3C557 28.3 600 31.7 642.8 32C685.7 32.3 728.3 29.7 771.2 28.3C814 27 857 27 878.5 27L900 27L900 51L878.5 51C857 51 814 51 771.2 51C728.3 51 685.7 51 642.8 51C600 51 557 51 514.2 51C471.3 51 428.7 51 385.8 51C343 51 300 51 257.2 51C214.3 51 171.7 51 128.8 51C86 51 43 51 21.5 51L0 51Z" fill="#434343"></path><path d="M0 34L21.5 34.3C43 34.7 86 35.3 128.8 36.2C171.7 37 214.3 38 257.2 38.8C300 39.7 343 40.3 385.8 39.5C428.7 38.7 471.3 36.3 514.2 35.7C557 35 600 36 642.8 37.3C685.7 38.7 728.3 40.3 771.2 40C814 39.7 857 37.3 878.5 36.2L900 35L900 51L878.5 51C857 51 814 51 771.2 51C728.3 51 685.7 51 642.8 51C600 51 557 51 514.2 51C471.3 51 428.7 51 385.8 51C343 51 300 51 257.2 51C214.3 51 171.7 51 128.8 51C86 51 43 51 21.5 51L0 51Z" fill="#2b2b2b"></path></svg>