<svg width="33" height="33" xmlns="http://www.w3.org/2000/svg" xmlns:xlink="http://www.w3.org/1999/xlink" xml:space="preserve" overflow="hidden"><defs><clipPath id="clip0"><rect x="408" y="514" width="33" height="33"/></clipPath></defs><g clip-path="url(#clip0)" transform="translate(-408 -514)"><path d="M39.2444 4.09511 11.9439 4.09511C10.4425 4.09511 9.21354 5.32402 9.21354 6.8254L9.21354 34.1259C9.21354 35.6273 10.4425 36.8562 11.9439 36.8562L39.2444 36.8562C40.7458 36.8562 41.9746 35.6273 41.9746 34.1259L41.9746 6.8254C41.9746 5.32402 40.7458 4.09511 39.2444 4.09511ZM37.8795 27.3012 25.5942 34.1261 18.7688 30.3349 18.7688 16.8634 25.5942 13.0722 32.4196 16.8634 32.4196 24.0884 25.5942 27.8794 24.2293 27.121 24.2293 20.0756 25.5942 19.3189 26.959 20.0761 26.959 23.9981 29.6893 22.4819 29.6893 18.469 25.5942 16.1933 21.4991 18.469 21.4991 28.7266 25.5942 31.0024 35.149 25.6944 35.149 15.257 25.5942 9.94893 16.0394 15.257 16.0394 28.8184 13.3092 27.3016 13.3092 13.6509 25.5945 6.82612 37.8799 13.6509Z" fill="#00B0F0" transform="matrix(1 0 0 1.00211 398.917 509.981)"/><path d="M1.3723-0.0822681C1.30146-0.0457044 1.22747-0.0182818 1.15064 0 1.07437 0.0188529 0.994388 0.0285649 0.910693 0.0285649 0.662181 0.0285649 0.465366-0.0405629 0.319968-0.179394 0.174284-0.318789 0.101727-0.507325 0.101727-0.744989 0.101727-0.983222 0.174283-1.17175 0.319968-1.31058 0.465366-1.44998 0.662181-1.51969 0.910693-1.51969 0.994388-1.51969 1.07438-1.50997 1.15064-1.49112 1.22748-1.47284 1.30147-1.44541 1.3723-1.40885L1.3723-1.10034C1.30061-1.14833 1.23005-1.18375 1.16092-1.20661 1.09151-1.22946 1.01838-1.24088 0.941538-1.24088 0.804425-1.24088 0.696448-1.19661 0.61818-1.10834 0.539627-1.02065 0.500489-0.89952 0.500489-0.744982 0.500489-0.591014 0.539624-0.469901 0.61818-0.381629 0.696448-0.293935 0.804425-0.250227 0.941538-0.250227 1.01838-0.250227 1.09151-0.261082 1.16092-0.283363 1.23005-0.306214 1.30061-0.341921 1.3723-0.390771Z" fill="#00B0F0" transform="matrix(1 0 0 1.00211 404.036 557.175)"/><path d="M1.00433-0.814709C0.972334-0.82899 0.940628-0.83985 0.909491-0.846699 0.878924-0.854131 0.848072-0.858128 0.816942-0.858128 0.724677-0.858128 0.65383-0.828421 0.604418-0.769 0.554714-0.710156 0.53015-0.626176 0.53015-0.516486L0.53015-2.55945e-05 0.172514-2.55945e-05 0.172514-1.11975 0.53015-1.11975 0.53015-0.935792C0.575854-1.00892 0.628418-1.06205 0.687827-1.09576 0.747813-1.13004 0.819517-1.14717 0.902635-1.14717 0.914633-1.14717 0.927777-1.14632 0.941489-1.14489 0.95577-1.14403 0.976338-1.14203 1.00319-1.13918Z" fill="#00B0F0" transform="matrix(1 0 0 1.00211 405.539 557.175)"/><path d="M1.29004-0.563306 1.29004-0.460474 0.45251-0.460474C0.461651-0.376495 0.49193-0.313649 0.54392-0.271945 0.595622-0.229954 0.668462-0.209101 0.762158-0.209101 0.837567-0.209101 0.914413-0.219956 0.992966-0.242236 1.07209-0.265089 1.15321-0.298796 1.23634-0.343927L1.23634-0.0685596C1.15179-0.0365665 1.06723-0.012572 0.982675 0.00342527 0.898126 0.0199929 0.813571 0.0285627 0.729008 0.0285627 0.526201 0.0285627 0.368517-0.0228544 0.255967-0.125692 0.143995-0.228523 0.0880012-0.372781 0.0880012-0.558743 0.0880012-0.741561 0.143133-0.884955 0.253678-0.989502 0.363939-1.09463 0.515619-1.14718 0.708441-1.14718 0.8844-1.14718 1.02523-1.09377 1.1312-0.987219 1.2369-0.881242 1.29003-0.73984 1.29003-0.563306ZM0.922115-0.682137C0.922115-0.74984 0.902123-0.804396 0.862701-0.845532 0.822994-0.887238 0.771297-0.908375 0.707307-0.908375 0.637893-0.908375 0.581616-0.888952 0.538201-0.850106 0.494785-0.811252 0.467645-0.755266 0.457073-0.682137Z" fill="#00B0F0" transform="matrix(1 0 0 1.00211 406.548 557.175)"/><path d="M0.674144-0.503889C0.599306-0.503889 0.543027-0.491321 0.505038-0.466184 0.467617-0.441046 0.44905-0.403626 0.44905-0.354212 0.44905-0.308507 0.46419-0.272514 0.494755-0.246802 0.525034-0.221665 0.567025-0.209097 0.620445-0.209097 0.688145-0.209097 0.744989-0.233091 0.790691-0.281082 0.83697-0.329642 0.86039-0.390202 0.86039-0.462759L0.86039-0.503893ZM1.22032-0.638721 1.22032 0 0.86039 0 0.86039-0.165677C0.812405-0.0976914 0.758132-0.0482712 0.698137-0.017141 0.637864 0.0131381 0.564739 0.0285634 0.478756 0.0285634 0.362784 0.0285634 0.268801-0.00485783 0.196529-0.0719862 0.123973-0.139686 0.0879791-0.227667 0.0879791-0.335931 0.0879791-0.466763 0.132826-0.562742 0.222811-0.623869 0.313364-0.68557 0.455333-0.71642 0.649003-0.71642L0.860382-0.71642 0.860382-0.744982C0.860382-0.80126 0.837816-0.842389 0.792967-0.868384 0.747834-0.894954 0.678139-0.908375 0.58387-0.908375 0.506743-0.908375 0.435335-0.900665 0.369059-0.885524 0.303359-0.870098 0.242513-0.847247 0.186242-0.81697L0.186242-1.09005C0.262228-1.10834 0.338778-1.12233 0.415905-1.13233 0.493602-1.14204 0.5713-1.14718 0.648998-1.14718 0.850667-1.14718 0.996351-1.10719 1.08548-1.02721 1.17518-0.947804 1.22031-0.8184 1.22031-0.638724Z" fill="#00B0F0" transform="matrix(1 0 0 1.00211 407.937 557.175)"/><path d="M0.563306-1.43738 0.563306-1.11974 0.932371-1.11974 0.932371-0.863789 0.563306-0.863789 0.563306-0.388466C0.563306-0.336477 0.573588-0.301627 0.594156-0.283346 0.614724-0.265064 0.655286-0.255923 0.71642-0.255923L0.900374-0.255923 0.900374 2.19381e-05 0.594156 2.19381e-05C0.452473 2.19381e-05 0.351923-0.0291148 0.292507-0.0879571 0.233662-0.147373 0.204527-0.247353 0.204527-0.388466L0.204527-0.863789 0.0274212-0.863789 0.0274212-1.11974 0.204527-1.11974 0.204527-1.43738Z" fill="#00B0F0" transform="matrix(1 0 0 1.00211 409.319 557.175)"/><path d="M1.29004-0.563306 1.29004-0.460474 0.45251-0.460474C0.461651-0.376495 0.49193-0.313649 0.54392-0.271945 0.595622-0.229954 0.668462-0.209101 0.762158-0.209101 0.837567-0.209101 0.914413-0.219956 0.992966-0.242236 1.07209-0.265089 1.15321-0.298796 1.23634-0.343927L1.23634-0.0685596C1.15179-0.0365665 1.06723-0.012572 0.982675 0.00342527 0.898126 0.0199929 0.813571 0.0285627 0.729008 0.0285627 0.526201 0.0285627 0.368517-0.0228544 0.255967-0.125692 0.143995-0.228523 0.0880012-0.372781 0.0880012-0.558743 0.0880012-0.741561 0.143133-0.884955 0.253678-0.989502 0.363939-1.09463 0.515619-1.14718 0.708441-1.14718 0.8844-1.14718 1.02523-1.09377 1.1312-0.987219 1.2369-0.881242 1.29003-0.73984 1.29003-0.563306ZM0.922115-0.682137C0.922115-0.74984 0.902123-0.804396 0.862701-0.845532 0.822994-0.887238 0.771297-0.908375 0.707307-0.908375 0.637893-0.908375 0.581616-0.888952 0.538201-0.850106 0.494785-0.811252 0.467645-0.755266 0.457073-0.682137Z" fill="#00B0F0" transform="matrix(1 0 0 1.00211 410.298 557.175)"/><path d="M0.933537-0.95636 0.933537-1.55623 1.29346-1.55623 1.29346-7.3127e-06 0.933537-7.3127e-06 0.933537-0.162262C0.884692-0.0959902 0.830711-0.0474302 0.77129-0.0171483 0.711861 0.0131336 0.642743 0.0285562 0.564476 0.0285562 0.426506 0.0285562 0.313386-0.0262892 0.225122-0.13598 0.136572-0.245671 0.0925792-0.386499 0.0925792-0.558743 0.0925792-0.731562 0.136569-0.872964 0.225122-0.982653 0.313386-1.09234 0.426506-1.14719 0.564476-1.14719 0.642173-1.14719 0.71073-1.13148 0.770145-1.10034 0.830135-1.06892 0.884692-1.02093 0.933537-0.956367ZM0.698159-0.230797C0.774149-0.230797 0.832411-0.258505 0.872978-0.314206 0.913254-0.370479 0.933537-0.451889 0.933537-0.558728 0.933537-0.665274 0.913254-0.746404 0.872978-0.802099 0.832411-0.858377 0.774142-0.886654 0.698159-0.886654 0.621888-0.886654 0.56362-0.85837 0.523342-0.802099 0.482779-0.746397 0.462784-0.665274 0.462784-0.558728 0.462784-0.451897 0.482779-0.370484 0.523342-0.314206 0.563619-0.258503 0.621895-0.230797 0.698159-0.230797Z" fill="#00B0F0" transform="matrix(1 0 0 1.00211 411.686 557.175)"/><path d="M0.767833-0.230804C0.844679-0.230804 0.90324-0.258512 0.943793-0.314213 0.984069-0.370486 1.00435-0.451897 1.00435-0.558735 1.00435-0.665281 0.984069-0.746412 0.943793-0.802106 0.903233-0.858384 0.844672-0.886662 0.767833-0.886662 0.690708-0.886662 0.631862-0.858377 0.590728-0.802106 0.550165-0.745551 0.53017-0.664426 0.53017-0.558735 0.53017-0.452759 0.550166-0.371632 0.590728-0.315361 0.631862-0.258801 0.690708-0.230811 0.767833-0.230811ZM0.530171-0.956367C0.579589-1.02092 0.634151-1.06892 0.693567-1.10034 0.753552-1.13147 0.822681-1.14718 0.900381-1.14718 1.03892-1.14718 1.15233-1.09234 1.24087-0.982646 1.32914-0.872957 1.37341-0.731555 1.37341-0.558736 1.37341-0.386485 1.32914-0.245664 1.24087-0.135974 1.15233-0.0262834 1.03892 0.028562 0.900381 0.028562 0.822681 0.028562 0.753552 0.0131366 0.693567-0.0171424 0.634151-0.0482785 0.579591-0.0965513 0.530171-0.162256L0.530171-1.46254e-06 0.172536-1.46254e-06 0.172536-1.55622 0.530171-1.55622Z" fill="#00B0F0" transform="matrix(1 0 0 1.00211 413.865 557.175)"/><path d="M0.0251375-1.11972 0.382773-1.11972 0.684422-0.359859 0.940365-1.11972 1.298-1.11972 0.827247 0.106327C0.779831 0.230299 0.724698 0.317138 0.66157 0.366842 0.598155 0.417117 0.515316 0.442251 0.412484 0.442251L0.204525 0.442251 0.204525 0.206869 0.316498 0.206869C0.377341 0.206869 0.421618 0.196871 0.449041 0.177162 0.477034 0.158022 0.498744 0.123744 0.514169 0.0743304L0.524453 0.0434792Z" fill="#00B0F0" transform="matrix(1 0 0 1.00211 415.331 557.175)"/><path d="M0.572446-1.20206 0.572446-0.291411 0.7107-0.291411C0.868376-0.291411 0.988642-0.33026 1.07177-0.407962 1.1546-0.485659 1.19631-0.599064 1.19631-0.748453 1.19631-0.896135 1.1546-1.0084 1.07177-1.08553 0.989495-1.16323 0.868953-1.20207 0.7107-1.20207ZM0.188529-1.49229 0.594158-1.49229C0.820398-1.49229 0.988926-1.47629 1.10034-1.4443 1.21146-1.41231 1.30658-1.35746 1.38599-1.27977 1.45597-1.21264 1.50767-1.13494 1.54138-1.04667 1.57566-0.958977 1.5928-0.859572 1.5928-0.748453 1.5928-0.635617 1.57566-0.535067 1.54138-0.446803 1.50767-0.358253 1.45597-0.280271 1.38599-0.21257 1.306-0.135442 1.21003-0.0805968 1.09805-0.0480336 0.986074-0.0160404 0.818108-4.38763e-05 0.594158-4.38763e-05L0.188529-4.38763e-05Z" fill="#00B0F0" transform="matrix(1 0 0 1.00211 417.378 557.175)"/><path d="M0.674144-0.503889C0.599306-0.503889 0.543027-0.491321 0.505038-0.466184 0.467617-0.441046 0.44905-0.403626 0.44905-0.354212 0.44905-0.308507 0.46419-0.272514 0.494755-0.246802 0.525034-0.221665 0.567025-0.209097 0.620445-0.209097 0.688145-0.209097 0.744989-0.233091 0.790691-0.281082 0.83697-0.329642 0.86039-0.390202 0.86039-0.462759L0.86039-0.503893ZM1.22032-0.638721 1.22032 0 0.86039 0 0.86039-0.165677C0.812405-0.0976914 0.758132-0.0482712 0.698137-0.017141 0.637864 0.0131381 0.564739 0.0285634 0.478756 0.0285634 0.362784 0.0285634 0.268801-0.00485783 0.196529-0.0719862 0.123973-0.139686 0.0879791-0.227667 0.0879791-0.335931 0.0879791-0.466763 0.132826-0.562742 0.222811-0.623869 0.313364-0.68557 0.455333-0.71642 0.649003-0.71642L0.860382-0.71642 0.860382-0.744982C0.860382-0.80126 0.837816-0.842389 0.792967-0.868384 0.747834-0.894954 0.678139-0.908375 0.58387-0.908375 0.506743-0.908375 0.435335-0.900665 0.369059-0.885524 0.303359-0.870098 0.242513-0.847247 0.186242-0.81697L0.186242-1.09005C0.262228-1.10834 0.338778-1.12233 0.415905-1.13233 0.493602-1.14204 0.5713-1.14718 0.648998-1.14718 0.850667-1.14718 0.996351-1.10719 1.08548-1.02721 1.17518-0.947804 1.22031-0.8184 1.22031-0.638724Z" fill="#00B0F0" transform="matrix(1 0 0 1.00211 419.078 557.175)"/><path d="M1.29801-0.682137 1.29801 0 0.938082 0 0.938082-0.522172C0.938082-0.618722 0.935799-0.685566 0.931226-0.722131 0.926653-0.758694 0.918943-0.785542 0.908375-0.803258 0.894663-0.826109 0.875524-0.843818 0.851243-0.856962 0.827532-0.869813 0.800399-0.876385 0.770116-0.876385 0.695278-0.876385 0.636718-0.847247 0.594158-0.789546 0.55131-0.732415 0.530171-0.652718 0.530171-0.550742L0.530171-7.3127e-06 0.172536-7.3127e-06 0.172536-1.11973 0.530171-1.11973 0.530171-0.956331C0.58416-1.02089 0.641288-1.06889 0.701567-1.10031 0.762414-1.13144 0.829538-1.14716 0.902664-1.14716 1.03207-1.14716 1.13034-1.10716 1.19746-1.02718 1.2643-0.947776 1.29801-0.832944 1.29801-0.682109Z" fill="#00B0F0" transform="matrix(1 0 0 1.00211 420.459 557.175)"/><path d="M0.172536-1.11972 0.530171-1.11972 0.530171 0 0.172536 0ZM0.172536-1.55621 0.530171-1.55621 0.530171-1.26369 0.172536-1.26369Z" fill="#00B0F0" transform="matrix(1 0 0 1.00211 421.917 557.175)"/><path d="M0.172536-1.55622 0.530171-1.55622 0.530171 0 0.172536 0Z" fill="#00B0F0" transform="matrix(1 0 0 1.00211 422.619 557.175)"/><path d="M0.188529-1.49223 0.827247-1.49223C1.01693-1.49223 1.16232-1.44996 1.26373-1.3654 1.36571-1.28142 1.41684-1.16144 1.41684-1.00548 1.41684-0.849224 1.36572-0.728966 1.26373-0.644411 1.16233-0.559861 1.01693-0.517579 0.827247-0.517579L0.572446-0.517579 0.572446 2.19381e-05 0.188529 2.19381e-05ZM0.572446-1.21343 0.572446-0.796381 0.786118-0.796381C0.860667-0.796381 0.91809-0.814666 0.95865-0.851229 0.999786-0.887792 1.02035-0.939206 1.02035-1.00548 1.02035-1.07233 0.999786-1.12374 0.95865-1.15974 0.91809-1.19545 0.860674-1.21344 0.786118-1.21344Z" fill="#00B0F0" transform="matrix(1 0 0 1.00211 424.034 557.175)"/><path d="M0.704989-0.89127C0.62558-0.89127 0.565017-0.862708 0.523312-0.805577 0.481321-0.748446 0.460468-0.666181 0.460468-0.558772 0.460468-0.451362 0.481321-0.369094 0.523312-0.311967 0.565018-0.255408 0.625573-0.227418 0.704989-0.227418 0.78269-0.227418 0.842104-0.255411 0.883234-0.311967 0.924939-0.369098 0.946083-0.451362 0.946083-0.558772 0.946083-0.666181 0.924946-0.748446 0.883234-0.805577 0.842104-0.862708 0.78269-0.89127 0.704989-0.89127ZM0.704989-1.14722C0.897522-1.14722 1.04806-1.09495 1.15632-0.990683 1.26431-0.886989 1.31858-0.743019 1.31858-0.558779 1.31858-0.375105 1.26431-0.231133 1.15632-0.126876 1.04806-0.0231813 0.897522 0.0285195 0.704989 0.0285195 0.511319 0.0285195 0.360209-0.0231835 0.251375-0.126876 0.142254-0.23114 0.0879791-0.375105 0.0879791-0.558779 0.0879791-0.743019 0.142253-0.886996 0.251375-0.990683 0.360209-1.09495 0.511319-1.14722 0.704989-1.14722Z" fill="#00B0F0" transform="matrix(1 0 0 1.00211 425.534 557.175)"/><path d="M0.172536-1.55622 0.530171-1.55622 0.530171 0 0.172536 0Z" fill="#00B0F0" transform="matrix(1 0 0 1.00211 426.941 557.175)"/><path d="M1.0466-1.08433 1.0466-0.812383C0.970321-0.844373 0.896341-0.868369 0.824929-0.884372 0.753232-0.900367 0.685822-0.908361 0.622692-0.908361 0.554707-0.908361 0.504145-0.89979 0.470726-0.883227 0.437877-0.866371 0.421594-0.840092 0.421594-0.804389 0.421594-0.776105 0.434163-0.754398 0.4593-0.739257 0.484437-0.723831 0.529284-0.712409 0.594132-0.70498L0.656975-0.69584C0.840362-0.67213 0.963764-0.633567 1.02718-0.580438 1.09031-0.527021 1.12202-0.44361 1.12202-0.330204 1.12202-0.210517 1.07774-0.120534 0.989474-0.0605478 0.901782-0.00113201 0.770664 0.0285796 0.596419 0.0285796 0.521581 0.0285796 0.444738 0.0228665 0.365615 0.01144 0.287062 1.38941e-05 0.20622-0.0174108 0.123382-0.0411201L0.123382-0.313065C0.194223-0.27793 0.266777-0.25165 0.341622-0.234227 0.417031-0.217373 0.493587-0.209089 0.571285-0.209089 0.64127-0.209089 0.693831-0.218516 0.728959-0.237654 0.763808-0.257364 0.781524-0.286215 0.781524-0.324493 0.781524-0.356486 0.769241-0.379909 0.744961-0.395335 0.720389-0.411331 0.672118-0.423329 0.599845-0.431898L0.537001-0.439897C0.377606-0.459607 0.266204-0.496457 0.202217-0.550728 0.138232-0.604716 0.106239-0.686701 0.106239-0.796388 0.106239-0.915224 0.146515-1.0032 0.227352-1.06034 0.308764-1.11804 0.433592-1.14718 0.602128-1.14718 0.667542-1.14718 0.736384-1.14175 0.808941-1.13118 0.882067-1.12118 0.961189-1.10547 1.0466-1.08433Z" fill="#00B0F0" transform="matrix(1 0 0 1.00211 427.643 557.175)"/><path d="M1.29801-0.682137 1.29801 0 0.938082 0 0.938082-0.51989C0.938082-0.618158 0.935799-0.685566 0.931226-0.722131 0.926653-0.758694 0.918943-0.785542 0.908375-0.803258 0.894663-0.826109 0.875524-0.843818 0.851243-0.856962 0.827532-0.869813 0.800399-0.876385 0.770116-0.876385 0.695278-0.876385 0.636718-0.847247 0.594158-0.789546 0.55131-0.732415 0.530171-0.652718 0.530171-0.550742L0.530171-7.3127e-06 0.172536-7.3127e-06 0.172536-1.55623 0.530171-1.55623 0.530171-0.95636C0.58416-1.02092 0.641288-1.06891 0.701567-1.10033 0.762414-1.13147 0.829538-1.14718 0.902664-1.14718 1.03207-1.14718 1.13034-1.10719 1.19746-1.0272 1.2643-0.947797 1.29801-0.832965 1.29801-0.682131Z" fill="#00B0F0" transform="matrix(1 0 0 1.00211 428.861 557.175)"/><path d="M0.172536-1.11972 0.530171-1.11972 0.530171 0 0.172536 0ZM0.172536-1.55621 0.530171-1.55621 0.530171-1.26369 0.172536-1.26369Z" fill="#00B0F0" transform="matrix(1 0 0 1.00211 430.319 557.175)"/><path d="M1.29801-0.682137 1.29801 0 0.938082 0 0.938082-0.522172C0.938082-0.618722 0.935799-0.685566 0.931226-0.722131 0.926653-0.758694 0.918943-0.785542 0.908375-0.803258 0.894663-0.826109 0.875524-0.843818 0.851243-0.856962 0.827532-0.869813 0.800399-0.876385 0.770116-0.876385 0.695278-0.876385 0.636718-0.847247 0.594158-0.789546 0.55131-0.732415 0.530171-0.652718 0.530171-0.550742L0.530171-7.3127e-06 0.172536-7.3127e-06 0.172536-1.11973 0.530171-1.11973 0.530171-0.956331C0.58416-1.02089 0.641288-1.06889 0.701567-1.10031 0.762414-1.13144 0.829538-1.14716 0.902664-1.14716 1.03207-1.14716 1.13034-1.10716 1.19746-1.02718 1.2643-0.947776 1.29801-0.832944 1.29801-0.682109Z" fill="#00B0F0" transform="matrix(1 0 0 1.00211 431.021 557.175)"/><path d="M0.908382-1.55622 0.908382-1.32084 0.710715-1.32084C0.66044-1.32084 0.625017-1.31169 0.604454-1.29341 0.584458-1.27513 0.574746-1.24314 0.574746-1.19744L0.574746-1.11974 0.880965-1.11974 0.880965-0.863789 0.574746-0.863789 0.574746-1.46254e-05 0.217111-1.46254e-05 0.217111-0.863789 0.0388634-0.863789 0.0388634-1.11974 0.217111-1.11974 0.217111-1.19744C0.217111-1.31913 0.250818-1.40938 0.318801-1.46823 0.386501-1.52679 0.491908-1.55621 0.635303-1.55621Z" fill="#00B0F0" transform="matrix(1 0 0 1.00211 404.036 559.227)"/><path d="M1.00433-0.814709C0.972334-0.82899 0.940628-0.83985 0.909491-0.846699 0.878924-0.854131 0.848072-0.858128 0.816942-0.858128 0.724677-0.858128 0.65383-0.828421 0.604418-0.769 0.554714-0.710156 0.53015-0.626176 0.53015-0.516486L0.53015-2.55945e-05 0.172514-2.55945e-05 0.172514-1.11975 0.53015-1.11975 0.53015-0.935792C0.575854-1.00892 0.628418-1.06205 0.687827-1.09576 0.747813-1.13004 0.819517-1.14717 0.902635-1.14717 0.914633-1.14717 0.927777-1.14632 0.941489-1.14489 0.95577-1.14403 0.976338-1.14203 1.00319-1.13918Z" fill="#00B0F0" transform="matrix(1 0 0 1.00211 404.927 559.227)"/><path d="M0.704989-0.89127C0.62558-0.89127 0.565017-0.862708 0.523312-0.805577 0.481321-0.748446 0.460468-0.666181 0.460468-0.558772 0.460468-0.451362 0.481321-0.369094 0.523312-0.311967 0.565018-0.255408 0.625573-0.227418 0.704989-0.227418 0.78269-0.227418 0.842104-0.255411 0.883234-0.311967 0.924939-0.369098 0.946083-0.451362 0.946083-0.558772 0.946083-0.666181 0.924946-0.748446 0.883234-0.805577 0.842104-0.862708 0.78269-0.89127 0.704989-0.89127ZM0.704989-1.14722C0.897522-1.14722 1.04806-1.09495 1.15632-0.990683 1.26431-0.886989 1.31858-0.743019 1.31858-0.558779 1.31858-0.375105 1.26431-0.231133 1.15632-0.126876 1.04806-0.0231813 0.897522 0.0285195 0.704989 0.0285195 0.511319 0.0285195 0.360209-0.0231835 0.251375-0.126876 0.142254-0.23114 0.0879791-0.375105 0.0879791-0.558779 0.0879791-0.743019 0.142253-0.886996 0.251375-0.990683 0.360209-1.09495 0.511319-1.14722 0.704989-1.14722Z" fill="#00B0F0" transform="matrix(1 0 0 1.00211 405.937 559.227)"/><path d="M1.21003-0.933537C1.25488-1.00267 1.30859-1.0558 1.37114-1.09236 1.43342-1.12893 1.50197-1.14721 1.57681-1.14721 1.70535-1.14721 1.80334-1.10722 1.87046-1.02724 1.93816-0.947832 1.97215-0.833001 1.97215-0.682166L1.97215-2.92509e-05 1.61223-2.92509e-05 1.61223-0.583905 1.61223-0.610186C1.6128-0.619898 1.61337-0.633609 1.61337-0.65132 1.61337-0.730445 1.60137-0.787576 1.57795-0.822717 1.5551-0.85842 1.51767-0.87642 1.46598-0.87642 1.39799-0.87642 1.34543-0.848136 1.3083-0.791872 1.27088-0.736163 1.25174-0.655326 1.25117-0.549635L1.25117-4.09512e-05 0.891242-4.09512e-05 0.891242-0.583917C0.891242-0.707889 0.880389-0.787591 0.859252-0.822724 0.837823-0.858427 0.799837-0.876427 0.744989-0.876427 0.676432-0.876427 0.623299-0.848143 0.586165-0.791872 0.548744-0.73617 0.530177-0.655902 0.530177-0.550782L0.530177-4.68013e-05 0.170253-4.68013e-05 0.170253-1.11977 0.530177-1.11977 0.530177-0.956374C0.574167-1.0195 0.624445-1.06721 0.681002-1.0992 0.738133-1.13119 0.800975-1.14719 0.869529-1.14719 0.947228-1.14719 1.01579-1.12834 1.0752-1.0912 1.13462-1.05378 1.17947-1.00122 1.21003-0.933523Z" fill="#00B0F0" transform="matrix(1 0 0 1.00211 407.343 559.227)"/><path d="M0.563306-1.43738 0.563306-1.11974 0.932371-1.11974 0.932371-0.863789 0.563306-0.863789 0.563306-0.388466C0.563306-0.336477 0.573588-0.301627 0.594156-0.283346 0.614724-0.265064 0.655286-0.255923 0.71642-0.255923L0.900374-0.255923 0.900374 2.19381e-05 0.594156 2.19381e-05C0.452473 2.19381e-05 0.351923-0.0291148 0.292507-0.0879571 0.233662-0.147373 0.204527-0.247353 0.204527-0.388466L0.204527-0.863789 0.0274212-0.863789 0.0274212-1.11974 0.204527-1.11974 0.204527-1.43738Z" fill="#00B0F0" transform="matrix(1 0 0 1.00211 410.19 559.227)"/><path d="M1.29801-0.682137 1.29801 0 0.938082 0 0.938082-0.51989C0.938082-0.618158 0.935799-0.685566 0.931226-0.722131 0.926653-0.758694 0.918943-0.785542 0.908375-0.803258 0.894663-0.826109 0.875524-0.843818 0.851243-0.856962 0.827532-0.869813 0.800399-0.876385 0.770116-0.876385 0.695278-0.876385 0.636718-0.847247 0.594158-0.789546 0.55131-0.732415 0.530171-0.652718 0.530171-0.550742L0.530171-7.3127e-06 0.172536-7.3127e-06 0.172536-1.55623 0.530171-1.55623 0.530171-0.95636C0.58416-1.02092 0.641288-1.06891 0.701567-1.10033 0.762414-1.13147 0.829538-1.14718 0.902664-1.14718 1.03207-1.14718 1.13034-1.10719 1.19746-1.0272 1.2643-0.947797 1.29801-0.832965 1.29801-0.682131Z" fill="#00B0F0" transform="matrix(1 0 0 1.00211 411.168 559.227)"/><path d="M1.29004-0.563306 1.29004-0.460474 0.45251-0.460474C0.461651-0.376495 0.49193-0.313649 0.54392-0.271945 0.595622-0.229954 0.668462-0.209101 0.762158-0.209101 0.837567-0.209101 0.914413-0.219956 0.992966-0.242236 1.07209-0.265089 1.15321-0.298796 1.23634-0.343927L1.23634-0.0685596C1.15179-0.0365665 1.06723-0.012572 0.982675 0.00342527 0.898126 0.0199929 0.813571 0.0285627 0.729008 0.0285627 0.526201 0.0285627 0.368517-0.0228544 0.255967-0.125692 0.143995-0.228523 0.0880012-0.372781 0.0880012-0.558743 0.0880012-0.741561 0.143133-0.884955 0.253678-0.989502 0.363939-1.09463 0.515619-1.14718 0.708441-1.14718 0.8844-1.14718 1.02523-1.09377 1.1312-0.987219 1.2369-0.881242 1.29003-0.73984 1.29003-0.563306ZM0.922115-0.682137C0.922115-0.74984 0.902123-0.804396 0.862701-0.845532 0.822994-0.887238 0.771297-0.908375 0.707307-0.908375 0.637893-0.908375 0.581616-0.888952 0.538201-0.850106 0.494785-0.811252 0.467645-0.755266 0.457073-0.682137Z" fill="#00B0F0" transform="matrix(1 0 0 1.00211 412.626 559.227)"/><path d="M0.188529-1.49223 0.618151-1.49223 1.1609-0.468452 1.1609-1.49223 1.52539-1.49223 1.52539 0 1.09576 0 0.553024-1.02378 0.553024 0 0.188529 0Z" fill="#00B0F0" transform="matrix(1 0 0 1.00211 414.728 559.227)"/><path d="M0.704989-0.89127C0.62558-0.89127 0.565017-0.862708 0.523312-0.805577 0.481321-0.748446 0.460468-0.666181 0.460468-0.558772 0.460468-0.451362 0.481321-0.369094 0.523312-0.311967 0.565018-0.255408 0.625573-0.227418 0.704989-0.227418 0.78269-0.227418 0.842104-0.255411 0.883234-0.311967 0.924939-0.369098 0.946083-0.451362 0.946083-0.558772 0.946083-0.666181 0.924946-0.748446 0.883234-0.805577 0.842104-0.862708 0.78269-0.89127 0.704989-0.89127ZM0.704989-1.14722C0.897522-1.14722 1.04806-1.09495 1.15632-0.990683 1.26431-0.886989 1.31858-0.743019 1.31858-0.558779 1.31858-0.375105 1.26431-0.231133 1.15632-0.126876 1.04806-0.0231813 0.897522 0.0285195 0.704989 0.0285195 0.511319 0.0285195 0.360209-0.0231835 0.251375-0.126876 0.142254-0.23114 0.0879791-0.375105 0.0879791-0.558779 0.0879791-0.743019 0.142253-0.886996 0.251375-0.990683 0.360209-1.09495 0.511319-1.14722 0.704989-1.14722Z" fill="#00B0F0" transform="matrix(1 0 0 1.00211 416.441 559.227)"/><path d="M0.159965-0.436481 0.159965-1.11977 0.51989-1.11977 0.51989-1.00779C0.51989-0.946666 0.519318-0.870681 0.518747-0.779269 0.51789-0.687863 0.517605-0.626736 0.517605-0.596454 0.517605-0.505615 0.51989-0.440489 0.52446-0.401066 0.529602-0.36136 0.537601-0.332795 0.548455-0.315368 0.563594-0.291659 0.583019-0.273377 0.606728-0.260523 0.630152-0.24824 0.657289-0.242241 0.687856-0.242241 0.762407-0.242241 0.820967-0.270806 0.863811-0.327938 0.906376-0.385069 0.927798-0.464481 0.927798-0.566742L0.927798-1.11977 1.28544-1.11977 1.28544-4.38763e-05 0.927798-4.38763e-05 0.927798-0.162298C0.873526-0.0965983 0.816401-0.0483224 0.756404-0.0171849 0.696132 0.0130942 0.629573 0.0285195 0.556446 0.0285195 0.427618 0.0285195 0.32935-0.0109003 0.261656-0.0903119 0.193671-0.169436 0.159965-0.284845 0.159965-0.436525Z" fill="#00B0F0" transform="matrix(1 0 0 1.00211 417.848 559.227)"/><path d="M1.29801-0.682137 1.29801 0 0.938082 0 0.938082-0.522172C0.938082-0.618722 0.935799-0.685566 0.931226-0.722131 0.926653-0.758694 0.918943-0.785542 0.908375-0.803258 0.894663-0.826109 0.875524-0.843818 0.851243-0.856962 0.827532-0.869813 0.800399-0.876385 0.770116-0.876385 0.695278-0.876385 0.636718-0.847247 0.594158-0.789546 0.55131-0.732415 0.530171-0.652718 0.530171-0.550742L0.530171-7.3127e-06 0.172536-7.3127e-06 0.172536-1.11973 0.530171-1.11973 0.530171-0.956331C0.58416-1.02089 0.641288-1.06889 0.701567-1.10031 0.762414-1.13144 0.829538-1.14716 0.902664-1.14716 1.03207-1.14716 1.13034-1.10716 1.19746-1.02718 1.2643-0.947776 1.29801-0.832944 1.29801-0.682109Z" fill="#00B0F0" transform="matrix(1 0 0 1.00211 419.306 559.227)"/><path d="M0.188529-1.49223 0.827247-1.49223C1.01693-1.49223 1.16232-1.44996 1.26373-1.3654 1.36571-1.28142 1.41684-1.16144 1.41684-1.00548 1.41684-0.849224 1.36572-0.728966 1.26373-0.644411 1.16233-0.559861 1.01693-0.517579 0.827247-0.517579L0.572446-0.517579 0.572446 2.19381e-05 0.188529 2.19381e-05ZM0.572446-1.21343 0.572446-0.796381 0.786118-0.796381C0.860667-0.796381 0.91809-0.814666 0.95865-0.851229 0.999786-0.887792 1.02035-0.939206 1.02035-1.00548 1.02035-1.07233 0.999786-1.12374 0.95865-1.15974 0.91809-1.19545 0.860674-1.21344 0.786118-1.21344Z" fill="#00B0F0" transform="matrix(1 0 0 1.00211 421.476 559.227)"/><path d="M1.00433-0.814709C0.972334-0.82899 0.940628-0.83985 0.909491-0.846699 0.878924-0.854131 0.848072-0.858128 0.816942-0.858128 0.724677-0.858128 0.65383-0.828421 0.604418-0.769 0.554714-0.710156 0.53015-0.626176 0.53015-0.516486L0.53015-2.55945e-05 0.172514-2.55945e-05 0.172514-1.11975 0.53015-1.11975 0.53015-0.935792C0.575854-1.00892 0.628418-1.06205 0.687827-1.09576 0.747813-1.13004 0.819517-1.14717 0.902635-1.14717 0.914633-1.14717 0.927777-1.14632 0.941489-1.14489 0.95577-1.14403 0.976338-1.14203 1.00319-1.13918Z" fill="#00B0F0" transform="matrix(1 0 0 1.00211 422.977 559.227)"/><path d="M0.704989-0.89127C0.62558-0.89127 0.565017-0.862708 0.523312-0.805577 0.481321-0.748446 0.460468-0.666181 0.460468-0.558772 0.460468-0.451362 0.481321-0.369094 0.523312-0.311967 0.565018-0.255408 0.625573-0.227418 0.704989-0.227418 0.78269-0.227418 0.842104-0.255411 0.883234-0.311967 0.924939-0.369098 0.946083-0.451362 0.946083-0.558772 0.946083-0.666181 0.924946-0.748446 0.883234-0.805577 0.842104-0.862708 0.78269-0.89127 0.704989-0.89127ZM0.704989-1.14722C0.897522-1.14722 1.04806-1.09495 1.15632-0.990683 1.26431-0.886989 1.31858-0.743019 1.31858-0.558779 1.31858-0.375105 1.26431-0.231133 1.15632-0.126876 1.04806-0.0231813 0.897522 0.0285195 0.704989 0.0285195 0.511319 0.0285195 0.360209-0.0231835 0.251375-0.126876 0.142254-0.23114 0.0879791-0.375105 0.0879791-0.558779 0.0879791-0.743019 0.142253-0.886996 0.251375-0.990683 0.360209-1.09495 0.511319-1.14722 0.704989-1.14722Z" fill="#00B0F0" transform="matrix(1 0 0 1.00211 423.987 559.227)"/><path d="M0.172536-1.11972 0.530171-1.11972 0.530171-0.0205487C0.530171 0.12942 0.493894 0.243967 0.421622 0.323375 0.349923 0.402499 0.245663 0.442207 0.10855 0.442207L-0.0685566 0.442207-0.0685566 0.206825-0.00571269 0.206825C0.0619869 0.206825 0.108549 0.1914 0.133682 0.161121 0.159391 0.130556 0.172531 0.0699973 0.172531-0.020556ZM0.172536-1.55621 0.530171-1.55621 0.530171-1.26369 0.172536-1.26369Z" fill="#00B0F0" transform="matrix(1 0 0 1.00211 425.393 559.227)"/><path d="M1.29004-0.563306 1.29004-0.460474 0.45251-0.460474C0.461651-0.376495 0.49193-0.313649 0.54392-0.271945 0.595622-0.229954 0.668462-0.209101 0.762158-0.209101 0.837567-0.209101 0.914413-0.219956 0.992966-0.242236 1.07209-0.265089 1.15321-0.298796 1.23634-0.343927L1.23634-0.0685596C1.15179-0.0365665 1.06723-0.012572 0.982675 0.00342527 0.898126 0.0199929 0.813571 0.0285627 0.729008 0.0285627 0.526201 0.0285627 0.368517-0.0228544 0.255967-0.125692 0.143995-0.228523 0.0880012-0.372781 0.0880012-0.558743 0.0880012-0.741561 0.143133-0.884955 0.253678-0.989502 0.363939-1.09463 0.515619-1.14718 0.708441-1.14718 0.8844-1.14718 1.02523-1.09377 1.1312-0.987219 1.2369-0.881242 1.29003-0.73984 1.29003-0.563306ZM0.922115-0.682137C0.922115-0.74984 0.902123-0.804396 0.862701-0.845532 0.822994-0.887238 0.771297-0.908375 0.707307-0.908375 0.637893-0.908375 0.581616-0.888952 0.538201-0.850106 0.494785-0.811252 0.467645-0.755266 0.457073-0.682137Z" fill="#00B0F0" transform="matrix(1 0 0 1.00211 426.095 559.227)"/><path d="M1.07635-1.08433 1.07635-0.79296C1.02837-0.82638 0.979524-0.851236 0.930102-0.867231 0.881256-0.883227 0.830697-0.89122 0.778139-0.89122 0.678159-0.89122 0.600176-0.861805 0.543905-0.803244 0.488202-0.745259 0.460496-0.66385 0.460496-0.558722 0.460496-0.454172 0.488204-0.37276 0.543905-0.314199 0.600178-0.256212 0.678159-0.227361 0.778139-0.227361 0.833556-0.227361 0.88669-0.23536 0.936965-0.251355 0.98724-0.267923 1.03351-0.292775 1.07635-0.325623L1.07635-0.0331149C1.02065-0.0125479 0.963806 0.00259162 0.906113 0.0125896 0.848982 0.0231586 0.790997 0.0285861 0.732436 0.0285861 0.530479 0.0285861 0.37251-0.0231169 0.258248-0.126809 0.144558-0.230218 0.0880012-0.374184 0.0880012-0.558712 0.0880012-0.743809 0.144561-0.88807 0.258248-0.991764 0.37251-1.09517 0.530479-1.14716 0.732436-1.14716 0.79099-1.14716 0.848982-1.14173 0.906113-1.13116 0.963244-1.12117 1.0198-1.10546 1.07635-1.08431Z" fill="#00B0F0" transform="matrix(1 0 0 1.00211 427.484 559.227)"/><path d="M0.563306-1.43738 0.563306-1.11974 0.932371-1.11974 0.932371-0.863789 0.563306-0.863789 0.563306-0.388466C0.563306-0.336477 0.573588-0.301627 0.594156-0.283346 0.614724-0.265064 0.655286-0.255923 0.71642-0.255923L0.900374-0.255923 0.900374 2.19381e-05 0.594156 2.19381e-05C0.452473 2.19381e-05 0.351923-0.0291148 0.292507-0.0879571 0.233662-0.147373 0.204527-0.247353 0.204527-0.388466L0.204527-0.863789 0.0274212-0.863789 0.0274212-1.11974 0.204527-1.11974 0.204527-1.43738Z" fill="#00B0F0" transform="matrix(1 0 0 1.00211 428.697 559.227)"/></g></svg>